<?xml version="1.0" encoding="utf-8"?>
<!-- Generator: Adobe Illustrator 24.1.3, SVG Export Plug-In . SVG Version: 6.00 Build 0)  -->
<svg version="1.1" id="Layer_1" xmlns="http://www.w3.org/2000/svg" xmlns:xlink="http://www.w3.org/1999/xlink" x="0px" y="0px"
	 viewBox="0 0 135 65" style="enable-background:new 0 0 135 65;" xml:space="preserve">
<style type="text/css">
	.st0{enable-background:new    ;}
	.st1{fill:#FF7A00;}
</style>
<g class="st0">
	<path class="st1" d="M30.5,39.2c-2.5-0.1-6.7-0.2-12.6-0.2c-8,0-14,0.1-17.9,0.2v-1.1c1.2-0.1,2.1-0.2,2.7-0.4
		c0.6-0.2,1-0.6,1.2-1.3c0.2-0.6,0.3-1.6,0.3-3V5.9c0-1.4-0.1-2.4-0.3-3C3.6,2.3,3.2,1.8,2.7,1.6C2.1,1.4,1.2,1.2,0,1.2V0.1
		c4,0.1,9.9,0.2,17.9,0.2c5.4,0,9.2-0.1,11.5-0.2C29.2,3.1,29,5.8,29,8.2c0,1.6,0.1,2.9,0.2,3.8h-1.3c-0.6-3.9-1.5-6.7-3-8.3
		c-1.4-1.6-3.4-2.4-6.1-2.4h-2.3c-1.1,0-2,0.1-2.5,0.3c-0.5,0.2-0.9,0.5-1,1.1c-0.2,0.5-0.3,1.4-0.3,2.6V19h1.8
		c1.9,0,3.4-0.7,4.4-2.2c1-1.4,1.7-3.2,2.1-5.1h1.3c-0.1,1.5-0.2,3.3-0.2,5.2v2.7c0,1.9,0.1,4.5,0.3,7.9h-1.3
		c-0.8-4.9-3-7.3-6.7-7.3h-1.8V34c0,1.2,0.1,2,0.3,2.6c0.2,0.5,0.5,0.9,1,1.1c0.5,0.2,1.3,0.3,2.5,0.3h2.7c2.6,0,4.7-0.9,6.3-2.7
		c1.6-1.8,2.7-4.8,3.4-9.1h1.3c-0.1,1.2-0.2,2.8-0.2,4.6C30.1,34.2,30.3,37,30.5,39.2z"/>
	<path class="st1" d="M69.9,37.5c0.4,0.4,1,0.6,1.8,0.6v1.2c-3.8-0.1-6.3-0.2-7.5-0.2c-1.2,0-3.7,0.1-7.7,0.2
		c-0.3,0-0.7,0.1-1.2,0.1v-1.2c1.3,0,2.3-0.1,2.8-0.2c0.5-0.1,0.8-0.4,0.8-0.7c0-0.3-0.1-0.6-0.4-0.9l-9.2-13.7l-4.4,6
		c-1.7,2.3-2.5,4.2-2.5,5.8c0,1.1,0.4,2,1.2,2.7c0.8,0.6,2,1,3.4,1.1v1.1c-2.1-0.1-5-0.2-8.7-0.2c-2.2,0-3.9,0.1-5.1,0.2v-1.1
		c2.5-0.8,5.2-3.1,8-6.8l7.3-9.9L36.7,3.9c-0.7-1.1-1.3-1.8-1.8-2.2c-0.4-0.3-1-0.5-1.8-0.6V0c0.4,0,0.8,0,1.1,0.1
		C37.8,0.2,40,0.2,41,0.2c3.2,0,6-0.1,8.4-0.2v1.2c-1.2,0-2.1,0.1-2.7,0.2s-0.8,0.4-0.8,0.8c0,0.3,0.1,0.6,0.4,1.1l8.2,12.1l4.1-5.5
		c1.7-2.3,2.6-4.2,2.6-5.6c0-0.9-0.3-1.6-1-2.2c-0.7-0.5-1.7-0.8-3-0.9V0.1c2.1,0.1,4.4,0.2,6.9,0.2c2.2,0,3.9-0.1,5.1-0.2v1.1
		c-1.2,0.3-2.4,1-3.5,2c-1.2,1-2.3,2.3-3.4,3.8l-7,9.4l12.9,18.9C68.9,36.4,69.5,37.1,69.9,37.5z"/>
	<path class="st1" d="M92.4,26.6H72.5V22h19.9V26.6z"/>
</g>
<g class="st0">
	<path class="st1" d="M5.8,64.8H0V47.9h5.6c3.5,0,5.2,1.9,5.2,4.3c0,2.2-1.4,3.5-3,3.9c1.9,0.3,3.4,2.1,3.4,4.2
		C11.2,62.9,9.3,64.8,5.8,64.8z M5.5,49.4H1.7v6h3.9c2.3,0,3.6-1.2,3.6-3C9.1,50.6,7.9,49.4,5.5,49.4z M5.6,56.8H1.7v6.6h4
		c2.4,0,3.9-1.2,3.9-3.3C9.6,58.1,8,56.8,5.6,56.8z"/>
	<path class="st1" d="M24.1,60.8h-7.6l-1.5,4h-1.8l6.1-16.7h1.9l6.1,16.7h-1.8L24.1,60.8z M20.2,50.3l-3.3,9.1h6.6L20.2,50.3z"/>
	<path class="st1" d="M39.5,49.3l-8.5,14h8.6v1.5H29.1v-1.4l8.5-14h-8.3v-1.5h10.3V49.3z"/>
	<path class="st1" d="M51.3,49.3h-7.1v6.3h6.4V57h-6.4v6.4h7.1v1.4h-8.8V47.9h8.8V49.3z"/>
	<path class="st1" d="M59.7,47.9c3.9,0,5.7,2.1,5.7,4.9c0,2.3-1.3,4.3-4.1,4.8l4.3,7.2h-2l-4.2-7.1h-3.1v7.1h-1.7V47.9H59.7z
		 M59.7,49.4h-3.4v7h3.4c2.7,0,4-1.5,4-3.6C63.7,50.7,62.5,49.4,59.7,49.4z"/>
	<path class="st1" d="M80.4,65c-3.4,0-5.6-1.9-5.7-4.5h1.8c0.1,1.4,1.2,3.1,3.9,3.1c2.3,0,3.7-1.4,3.7-3.1c0-5-9.2-1.8-9.2-8.2
		c0-2.6,2.1-4.5,5.4-4.5c3.2,0,5.1,1.8,5.4,4.1h-1.8c-0.2-1.2-1.3-2.6-3.6-2.7c-2,0-3.6,1.1-3.6,3c0,4.9,9.2,1.9,9.2,8.2
		C85.8,62.7,84,65,80.4,65z"/>
	<path class="st1" d="M99.8,56.9h-9.1v7.9h-1.7V47.9h1.7v7.6h9.1v-7.6h1.7v16.9h-1.7V56.9z"/>
	<path class="st1" d="M112.9,65c-4.7,0-8.3-3.6-8.3-8.6c0-5,3.6-8.6,8.3-8.6c4.7,0,8.3,3.6,8.3,8.6C121.2,61.4,117.6,65,112.9,65z
		 M112.9,63.5c3.7,0,6.6-2.7,6.6-7.1c0-4.4-2.9-7.1-6.6-7.1s-6.6,2.7-6.6,7.1C106.3,60.8,109.2,63.5,112.9,63.5z"/>
	<path class="st1" d="M129.3,57.6h-3.4v7.2h-1.7V47.9h5.1c3.9,0,5.7,2.1,5.7,4.9C135,55.5,133.3,57.6,129.3,57.6z M129.3,56.2
		c2.8,0,3.9-1.3,3.9-3.4c0-2.2-1.1-3.4-3.9-3.4h-3.4v6.8H129.3z"/>
</g>
</svg>
